<svg width="339" height="339" viewBox="0 0 339 339" fill="none" xmlns="http://www.w3.org/2000/svg">
<path d="M169.5 339C263.112 339 339 263.112 339 169.5C339 75.8877 263.112 0 169.5 0C75.8877 0 0 75.8877 0 169.5C0 263.112 75.8877 339 169.5 339Z" fill="#EFEFEF"/>
<path opacity="0.06" d="M169.5 339C263.112 339 339 263.112 339 169.5C339 75.8877 263.112 0 169.5 0C75.8877 0 0 75.8877 0 169.5C0 263.112 75.8877 339 169.5 339Z" fill="url(#paint0_linear_1345_678)"/>
<path d="M328.414 169.5C328.414 257.262 257.262 328.414 169.5 328.414C81.7374 328.414 10.5859 257.262 10.5859 169.5C10.5859 151.938 13.4398 135.058 18.6841 119.277C21.3184 111.374 24.5382 103.763 28.3189 96.4703C42.3687 68.0536 69.1999 36.344 103.349 50.9792C149.694 70.4928 188.721 46.1008 232.626 38.7832C252.14 36.344 269.214 46.1008 281.801 57.2967C287.606 62.9069 292.923 69.078 297.729 75.6395C316.998 101.934 328.389 134.375 328.389 169.476L328.414 169.5Z" fill="url(#paint1_linear_1345_678)"/>
<path d="M119.93 255.65C120.07 259.897 122.357 262.02 126.79 262.02C129.683 262.02 131.993 260.807 133.72 258.38C135.493 255.953 136.87 251.917 137.85 246.27C136.543 247.763 134.84 248.93 132.74 249.77C130.687 250.61 128.517 251.03 126.23 251.03C122.217 251.03 118.973 249.957 116.5 247.81C114.073 245.617 112.86 242.537 112.86 238.57C112.86 237.543 112.977 236.283 113.21 234.79C114.143 229.61 116.407 225.48 120 222.4C123.593 219.32 128.073 217.78 133.44 217.78C138.573 217.78 142.283 219.087 144.57 221.7C146.857 224.267 148 228.093 148 233.18C148 236.213 147.65 239.62 146.95 243.4C145.877 249.467 144.477 254.437 142.75 258.31C141.07 262.137 138.783 265.053 135.89 267.06C133.043 269.067 129.427 270.07 125.04 270.07C120.233 270.07 116.64 268.88 114.26 266.5C111.927 264.073 110.76 260.993 110.76 257.26C110.76 256.56 110.783 256.023 110.83 255.65H119.93ZM129.66 243.05C132.04 243.05 134.07 242.303 135.75 240.81C137.43 239.317 138.48 237.31 138.9 234.79C139.04 233.997 139.11 233.25 139.11 232.55C139.11 230.45 138.503 228.863 137.29 227.79C136.077 226.67 134.397 226.11 132.25 226.11C129.73 226.11 127.607 226.903 125.88 228.49C124.153 230.03 123.057 232.083 122.59 234.65C122.45 235.35 122.38 236.003 122.38 236.61C122.38 238.57 122.987 240.133 124.2 241.3C125.413 242.467 127.233 243.05 129.66 243.05ZM190.068 226.6L163.538 270H153.038L180.128 227.65H156.188L157.588 219.32H191.328L190.068 226.6ZM193.908 231.5C194.515 228 196.031 225.27 198.458 223.31C200.885 221.303 203.731 220.3 206.998 220.3C209.845 220.3 212.108 221.07 213.788 222.61C215.515 224.103 216.378 226.203 216.378 228.91C216.378 229.423 216.285 230.287 216.098 231.5C215.491 235 213.975 237.753 211.548 239.76C209.168 241.767 206.345 242.77 203.078 242.77C200.231 242.77 197.945 242 196.218 240.46C194.538 238.92 193.698 236.773 193.698 234.02C193.698 233.227 193.768 232.387 193.908 231.5ZM238.498 221L202.378 270H192.788L228.908 221H238.498ZM205.948 226.18C203.335 226.18 201.701 227.953 201.048 231.5C200.955 231.92 200.908 232.527 200.908 233.32C200.908 235.7 201.958 236.89 204.058 236.89C205.271 236.89 206.298 236.447 207.138 235.56C208.025 234.673 208.631 233.32 208.958 231.5C209.051 231.08 209.098 230.497 209.098 229.75C209.098 227.37 208.048 226.18 205.948 226.18ZM215.328 259.43C215.935 255.93 217.451 253.2 219.878 251.24C222.305 249.28 225.151 248.3 228.418 248.3C231.218 248.3 233.458 249.047 235.138 250.54C236.865 252.033 237.728 254.133 237.728 256.84C237.728 257.353 237.635 258.217 237.448 259.43C236.841 262.977 235.325 265.753 232.898 267.76C230.518 269.72 227.695 270.7 224.428 270.7C221.581 270.7 219.318 269.953 217.638 268.46C215.958 266.92 215.118 264.75 215.118 261.95C215.118 261.157 215.188 260.317 215.328 259.43ZM227.298 254.11C226.085 254.11 225.035 254.553 224.148 255.44C223.308 256.327 222.725 257.657 222.398 259.43C222.305 259.85 222.258 260.433 222.258 261.18C222.258 263.607 223.308 264.82 225.408 264.82C226.621 264.82 227.648 264.377 228.488 263.49C229.375 262.603 229.981 261.25 230.308 259.43C230.401 259.01 230.448 258.45 230.448 257.75C230.448 255.323 229.398 254.11 227.298 254.11Z" fill="white"/>
<defs>
<linearGradient id="paint0_linear_1345_678" x1="0" y1="169.5" x2="339" y2="169.5" gradientUnits="userSpaceOnUse">
<stop stop-color="white"/>
<stop offset="1"/>
</linearGradient>
<linearGradient id="paint1_linear_1345_678" x1="10.5859" y1="183.403" x2="328.414" y2="183.403" gradientUnits="userSpaceOnUse">
<stop stop-color="#3692D0"/>
<stop offset="1" stop-color="#67C1AD"/>
</linearGradient>
</defs>
</svg>
