<svg width="339" height="339" viewBox="0 0 339 339" fill="none" xmlns="http://www.w3.org/2000/svg">
<path d="M169.5 339C263.112 339 339 263.112 339 169.5C339 75.8877 263.112 0 169.5 0C75.8877 0 0 75.8877 0 169.5C0 263.112 75.8877 339 169.5 339Z" fill="#EFEFEF"/>
<path opacity="0.06" d="M169.5 339C263.112 339 339 263.112 339 169.5C339 75.8877 263.112 0 169.5 0C75.8877 0 0 75.8877 0 169.5C0 263.112 75.8877 339 169.5 339Z" fill="url(#paint0_linear_1546_15)"/>
<path d="M328.389 169.5C328.389 257.262 257.262 328.414 169.5 328.414C81.7374 328.414 10.5859 257.262 10.5859 169.5C10.5859 154.767 12.5861 140.522 16.3424 126.985C28.075 113.569 46.369 106.715 74.4686 113.35C176.964 137.546 182.501 200.014 275.264 154.231C303.217 140.425 318.998 142.132 327.34 151.279C328.048 157.255 328.389 163.329 328.389 169.5Z" fill="url(#paint1_linear_1546_15)"/>
<path d="M328.389 169.5C328.389 257.262 257.262 328.414 169.5 328.414C81.7374 328.414 10.5859 257.262 10.5859 169.5C10.5859 154.767 12.5861 140.522 16.3424 126.985C28.075 113.569 46.369 106.715 74.4686 113.35C176.964 137.546 182.501 200.014 275.264 154.231C303.217 140.425 318.998 142.132 327.34 151.279C328.048 157.255 328.389 163.329 328.389 169.5Z" fill="url(#paint2_linear_1546_15)"/>
<path d="M140 222.44H117.32L115.22 234.41C116.387 233.197 117.927 232.217 119.84 231.47C121.8 230.677 123.807 230.28 125.86 230.28C130.48 230.28 133.84 231.493 135.94 233.92C138.087 236.347 139.16 239.427 139.16 243.16C139.16 244.327 139.043 245.657 138.81 247.15C137.877 252.517 135.59 256.833 131.95 260.1C128.31 263.367 123.667 265 118.02 265C112.98 265 109.107 263.81 106.4 261.43C103.74 259.05 102.41 255.877 102.41 251.91L102.48 250.58H112.07C112.163 252.447 112.817 253.94 114.03 255.06C115.29 256.18 117.063 256.74 119.35 256.74C122.15 256.74 124.39 255.877 126.07 254.15C127.797 252.423 128.917 250.137 129.43 247.29C129.57 246.45 129.64 245.657 129.64 244.91C129.64 242.81 129.033 241.2 127.82 240.08C126.653 238.96 124.903 238.4 122.57 238.4C120.61 238.4 118.883 238.89 117.39 239.87C115.897 240.85 114.753 242.157 113.96 243.79H104.51L109.76 213.83H141.47L140 222.44ZM147.669 239.45C149.069 231.61 151.612 225.427 155.299 220.9C159.032 216.373 164.282 214.11 171.049 214.11C181.222 214.11 186.309 219.617 186.309 230.63C186.309 233.43 186.029 236.37 185.469 239.45C182.482 256.39 174.689 264.86 162.089 264.86C151.915 264.86 146.829 259.33 146.829 248.27C146.829 245.47 147.109 242.53 147.669 239.45ZM175.809 239.45C176.369 236.323 176.649 233.733 176.649 231.68C176.649 229.02 176.089 226.943 174.969 225.45C173.895 223.957 172.052 223.21 169.439 223.21C165.705 223.21 162.975 224.633 161.249 227.48C159.522 230.327 158.215 234.317 157.329 239.45C156.769 242.577 156.489 245.167 156.489 247.22C156.489 249.927 157.025 252.027 158.099 253.52C159.219 255.013 161.085 255.76 163.699 255.76C166.312 255.76 168.412 255.037 169.999 253.59C171.585 252.143 172.799 250.277 173.639 247.99C174.479 245.657 175.202 242.81 175.809 239.45ZM194.043 226.5C194.649 223 196.166 220.27 198.593 218.31C201.019 216.303 203.866 215.3 207.133 215.3C209.979 215.3 212.243 216.07 213.923 217.61C215.649 219.103 216.513 221.203 216.513 223.91C216.513 224.423 216.419 225.287 216.233 226.5C215.626 230 214.109 232.753 211.683 234.76C209.303 236.767 206.479 237.77 203.213 237.77C200.366 237.77 198.079 237 196.353 235.46C194.673 233.92 193.833 231.773 193.833 229.02C193.833 228.227 193.903 227.387 194.043 226.5ZM238.633 216L202.513 265H192.923L229.043 216H238.633ZM206.083 221.18C203.469 221.18 201.836 222.953 201.183 226.5C201.089 226.92 201.043 227.527 201.043 228.32C201.043 230.7 202.093 231.89 204.193 231.89C205.406 231.89 206.433 231.447 207.273 230.56C208.159 229.673 208.766 228.32 209.093 226.5C209.186 226.08 209.233 225.497 209.233 224.75C209.233 222.37 208.183 221.18 206.083 221.18ZM215.463 254.43C216.069 250.93 217.586 248.2 220.013 246.24C222.439 244.28 225.286 243.3 228.553 243.3C231.353 243.3 233.593 244.047 235.273 245.54C236.999 247.033 237.863 249.133 237.863 251.84C237.863 252.353 237.769 253.217 237.583 254.43C236.976 257.977 235.459 260.753 233.033 262.76C230.653 264.72 227.829 265.7 224.563 265.7C221.716 265.7 219.453 264.953 217.773 263.46C216.093 261.92 215.253 259.75 215.253 256.95C215.253 256.157 215.323 255.317 215.463 254.43ZM227.433 249.11C226.219 249.11 225.169 249.553 224.283 250.44C223.443 251.327 222.859 252.657 222.533 254.43C222.439 254.85 222.393 255.433 222.393 256.18C222.393 258.607 223.443 259.82 225.543 259.82C226.756 259.82 227.783 259.377 228.623 258.49C229.509 257.603 230.116 256.25 230.443 254.43C230.536 254.01 230.583 253.45 230.583 252.75C230.583 250.323 229.533 249.11 227.433 249.11Z" fill="white"/>
<defs>
<linearGradient id="paint0_linear_1546_15" x1="0" y1="169.5" x2="339" y2="169.5" gradientUnits="userSpaceOnUse">
<stop stop-color="white"/>
<stop offset="1"/>
</linearGradient>
<linearGradient id="paint1_linear_1546_15" x1="10.5859" y1="219.601" x2="328.389" y2="219.601" gradientUnits="userSpaceOnUse">
<stop stop-color="#3692D0"/>
<stop offset="1" stop-color="#67C1AD"/>
</linearGradient>
<linearGradient id="paint2_linear_1546_15" x1="10.5859" y1="219.601" x2="328.389" y2="219.601" gradientUnits="userSpaceOnUse">
<stop stop-color="#3692D0"/>
<stop offset="1" stop-color="#67C1AD"/>
</linearGradient>
</defs>
</svg>
