<svg width="77" height="77" viewBox="0 0 77 77" fill="none" xmlns="http://www.w3.org/2000/svg">
<g clip-path="url(#clip0_1342_204)">
<path d="M77 68.093C76.5391 69.6081 75.4397 70.6594 74.3718 71.7392C73.1563 72.9667 71.9755 74.2303 70.7555 75.4547C68.7253 77.491 65.9374 77.5211 63.8619 75.515C59.342 71.1458 54.8432 66.7541 50.3202 62.388C48.8246 60.9436 48.3577 59.2583 48.9014 57.2597C48.9526 57.073 48.8909 56.7627 48.7598 56.6332C46.835 54.734 44.8891 52.8575 42.922 50.9478C42.7428 51.0441 42.5681 51.1285 42.4039 51.2294C37.2815 54.3696 31.742 55.7747 25.7294 55.3289C13.2495 54.4042 2.90687 45.2834 0.519634 33.0585C-2.38571 18.1875 7.1813 3.72002 21.9882 0.605445C23.1298 0.364472 24.2881 0.200309 25.4387 0H29.9481C30.5084 0.0948832 31.0672 0.197297 31.629 0.28465C40.7637 1.7079 47.5911 6.4867 52.0824 14.5307C52.73 15.6919 53.334 16.2039 54.673 16.097C56.155 15.9795 57.1942 17.0639 57.2018 18.454C57.2078 19.8547 56.1294 20.8788 54.6218 20.8833C52.3174 20.8909 50.0115 20.8848 47.7071 20.8848C47.442 20.8848 47.1784 20.8848 46.9133 20.8848V25.254C48.7056 25.254 50.4317 25.2585 52.1592 25.2525C53.0644 25.2495 53.7617 25.6395 54.2377 26.3836C54.7347 27.1592 54.7694 27.9966 54.322 28.8053C53.8807 29.6036 53.2 30.0659 52.2541 30.0659C50.4814 30.0659 48.7101 30.0659 46.9013 30.0659V34.7288C47.204 34.7288 47.4525 34.7288 47.6995 34.7288C50.0551 34.7288 52.4092 34.7182 54.7648 34.7333C56.1234 34.7423 57.1626 35.7664 57.1988 37.0813C57.2364 38.4488 56.2454 39.488 54.8266 39.5497C54.3009 39.5723 53.7738 39.5392 53.2497 39.5723C53.0524 39.5844 52.7647 39.6597 52.6834 39.8012C52.0779 40.8585 51.5131 41.9414 50.9136 43.0559C52.8897 44.9731 54.8627 46.8934 56.8508 48.7971C56.9879 48.9281 57.265 49.0215 57.4458 48.9853C59.3631 48.6013 60.8361 49.3603 62.169 50.6661C66.2477 54.6633 70.3474 58.6423 74.4607 62.6048C75.5285 63.6335 76.5632 64.6621 76.997 66.1351V68.0885L77 68.093ZM47.3365 16.0669C43.3905 8.81058 33.8596 3.1944 23.2262 5.26677C12.5899 7.33763 4.71876 17.0052 4.84678 27.8821C4.97781 39.0226 13.0236 48.5757 24.2444 50.3152C34.5509 51.9132 43.4763 46.2849 47.1889 39.5573C46.2265 39.5573 45.3078 39.5829 44.3905 39.5512C43.0169 39.5045 42.0063 38.5316 42.0018 37.1641C41.9807 30.9274 41.9807 24.6892 42.0018 18.4525C42.0063 17.0564 43.0531 16.0955 44.4704 16.0714C45.3966 16.0563 46.3229 16.0684 47.335 16.0684L47.3365 16.0669ZM72.1924 67.1607C67.5354 62.641 62.9914 58.2312 58.7034 54.0684C56.9728 55.6317 55.2709 57.1709 53.5283 58.7447C58.1702 63.2494 62.7082 67.6547 67.0414 71.8597C68.787 70.2663 70.4679 68.7346 72.1924 67.1607ZM46.838 47.8558C46.9284 47.7775 47.0172 47.6976 47.1076 47.6193C48.8005 49.4823 50.4919 51.3439 52.2029 53.225C52.6186 52.7912 52.9394 52.4538 53.2813 52.0969C51.4333 50.3107 49.6394 48.5757 47.814 46.8105C47.451 47.1991 47.1438 47.5274 46.838 47.8543V47.8558Z" fill="#0366D0"/>
<path d="M75.131 28.3234C75.0285 29.5584 75.0813 31.4154 74.6851 33.173C73.8387 36.9307 69.9995 39.6582 66.2011 39.4429C61.9929 39.2034 58.4881 36.1897 58.0905 32.1775C57.7651 28.9003 57.5829 25.5688 58.2486 22.3142C58.9475 18.9044 62.389 15.5865 67.3035 15.9284C70.9333 16.1799 74.3749 19.2749 74.8764 23.0205C75.0843 24.5733 75.0376 26.1622 75.131 28.325V28.3234ZM62.7896 27.6517H62.7866C62.7866 28.7542 62.7399 29.8581 62.7972 30.9576C62.9086 33.1158 64.4479 34.5948 66.5068 34.5903C68.5416 34.5857 70.1336 33.0616 70.1968 30.9229C70.2601 28.7451 70.2661 26.5628 70.1938 24.3865C70.123 22.26 68.4994 20.7328 66.4722 20.7388C64.4795 20.7448 62.9192 22.2449 62.8002 24.3459C62.7384 25.4438 62.7896 26.5493 62.7896 27.6517Z" fill="#0366D0"/>
<path d="M29.121 39.3374C27.5682 39.3374 26.0153 39.3449 24.464 39.3359C22.8931 39.3268 21.7756 38.3298 21.7515 36.9322C21.7259 35.5164 22.863 34.4652 24.4731 34.4592C27.4778 34.4471 30.4826 34.4577 33.4873 34.4546C34.3955 34.4546 34.4618 34.3808 34.4648 33.4576C34.4678 32.6308 34.4407 31.8039 34.4723 30.9786C34.4979 30.3189 34.1997 30.087 33.5747 30.09C31.4721 30.1021 29.368 30.1231 27.2639 30.0855C24.1312 30.0283 21.9804 28.0161 21.7771 24.8895C21.6882 23.5205 21.7138 22.1319 21.8343 20.7659C22.0632 18.1844 24.2773 16.1271 26.8603 16.0895C30.2145 16.0398 33.5702 16.0578 36.9258 16.0759C38.2889 16.0834 39.283 17.1317 39.2814 18.4706C39.2799 19.8351 38.2543 20.8758 36.849 20.8833C33.769 20.8984 30.6889 20.8863 27.6088 20.8894C26.6916 20.8894 26.6193 20.9632 26.6163 21.8728C26.6133 22.7238 26.6344 23.5762 26.6088 24.4271C26.5907 25.0416 26.8498 25.2751 27.4582 25.2706C29.5608 25.2525 31.6649 25.26 33.769 25.2645C36.9123 25.2736 39.2227 27.5252 39.2784 30.6729C39.3025 32.0735 39.3914 33.4953 39.2001 34.8733C38.8417 37.4713 36.5312 39.2982 33.7765 39.3359C32.2237 39.3569 30.6708 39.3389 29.1195 39.3404L29.121 39.3374Z" fill="#0366D0"/>
</g>
<defs>
<clipPath id="clip0_1342_204">
<rect width="77" height="77" fill="white"/>
</clipPath>
</defs>
</svg>
