<svg width="90" height="56" viewBox="0 0 90 56" fill="none" xmlns="http://www.w3.org/2000/svg">
<path d="M0 6.64806C0.199018 6.04148 0.355766 5.41912 0.600575 4.83358C1.82814 1.89535 4.6866 0.00372832 7.90435 0.00372832C26.8868 0.000222071 45.8692 0.000222071 64.8516 0.00372832C68.8777 0.00372832 72.3984 2.33363 73.8461 6.10109C75.484 10.3629 77.011 14.6668 78.5627 18.9602C78.767 19.5283 79.0523 19.8491 79.6669 20.0332C81.3419 20.5345 82.9956 21.1131 84.6459 21.6951C87.9676 22.8645 89.9912 25.722 89.9947 29.223C90 33.1588 90.0018 37.0963 89.9947 41.0321C89.9859 45.5516 86.5304 48.9755 81.9794 48.9877C81.0442 48.9895 80.1072 48.9877 79.3675 48.9877C78.5644 50.2885 77.9797 51.5911 77.0832 52.6272C72.2487 58.2127 63.3193 56.6015 60.7145 49.7013C60.4978 49.128 60.2495 48.9737 59.663 48.9737C49.8795 48.993 40.0941 48.993 30.3106 48.972C29.6977 48.972 29.4793 49.1753 29.2732 49.724C27.8413 53.5406 24.2661 55.9862 20.2082 55.9862C16.1645 55.9862 12.5681 53.5213 11.1503 49.7118C10.9407 49.1473 10.7012 48.9755 10.1041 48.9684C8.7057 48.9527 7.25446 49.0438 5.91945 48.7107C2.93067 47.9657 1.05145 45.9566 0.206063 43.0008C0.142659 42.7799 0.0686875 42.5608 0 42.3416C0 30.4432 0 18.5465 0 6.64806ZM53.0866 5.24557H52.1127C37.5844 5.24557 23.0543 5.24557 8.52606 5.24557C6.26641 5.24557 5.27133 6.24134 5.27133 8.50111C5.27133 19.1724 5.27133 29.8436 5.27133 40.5166C5.27133 40.72 5.26252 40.9251 5.27661 41.1285C5.36995 42.5766 6.40555 43.653 7.85503 43.7266C8.8466 43.7775 9.84345 43.7371 10.8509 43.7371C10.9389 43.5197 11.0199 43.3339 11.0886 43.1446C12.4958 39.3368 16.0588 36.772 19.9775 36.7457C24.2326 36.7176 27.8361 39.1247 29.2838 43.0359C29.5004 43.6197 29.7628 43.7564 30.3423 43.7564C40.0959 43.7389 49.8513 43.7389 59.6049 43.7564C60.2037 43.7564 60.4855 43.6127 60.7321 43.0061C62.2186 39.3403 64.9608 37.1366 68.92 36.793C73.0307 36.4371 76.3717 38.1078 78.184 41.7947C79.0611 43.5776 80.0544 43.8879 81.7434 43.7704C83.5962 43.6407 84.7181 42.6537 84.7252 40.8322C84.7375 37.042 84.7357 33.2517 84.7252 29.4615C84.7216 27.938 84.0929 27.0825 82.6416 26.5933C80.7888 25.9692 78.936 25.3434 77.0727 24.7543C76.5813 24.6 76.0494 24.5071 75.5351 24.5054C70.7904 24.4861 66.0439 24.4966 61.2992 24.4931C56.4629 24.4913 53.0919 21.1236 53.0902 16.2937C53.0884 12.6525 53.0902 9.01127 53.0902 5.24732L53.0866 5.24557ZM72.8863 19.2478C72.9091 19.118 72.9426 19.0532 72.925 19.0058C71.5741 15.2927 70.2603 11.5638 68.8443 7.87525C68.3265 6.52885 67.238 5.5173 65.7727 5.42964C63.3369 5.28413 60.8853 5.38932 58.3544 5.38932C58.3544 5.55587 58.3544 5.78027 58.3544 6.00642C58.3544 9.41624 58.3492 12.8261 58.3562 16.2341C58.3597 18.1766 59.4429 19.2407 61.4137 19.2443C63.8723 19.2495 66.331 19.2443 68.7914 19.2443C70.1599 19.2443 71.5301 19.2443 72.8863 19.2443V19.2478ZM24.606 46.3475C24.5919 44.0036 22.5964 42.0138 20.2399 41.9945C17.857 41.9752 15.8105 44.0089 15.8228 46.3843C15.8351 48.7248 17.8359 50.7198 20.1888 50.7391C22.5682 50.7566 24.6201 48.7195 24.606 46.3493V46.3475ZM69.8059 41.9945C67.4582 41.9787 65.4416 43.9475 65.394 46.3019C65.3465 48.6564 67.3824 50.7233 69.7636 50.7391C72.1113 50.7549 74.1279 48.7861 74.1755 46.4317C74.223 44.0702 72.1959 42.0121 69.8059 41.9963V41.9945Z" fill="#0366D0"/>
<path d="M31.8234 20.0628C31.8234 17.207 31.8146 14.3511 31.8269 11.4953C31.8322 10.2313 32.5578 9.24605 33.7783 9.21975C36.1718 9.16716 38.6146 9.0199 40.9518 9.41785C44.7067 10.056 46.843 12.6699 47.7994 16.2252C48.7909 19.9138 48.5461 23.513 46.4855 26.8211C44.8934 29.3789 42.5668 30.8603 39.4882 30.9883C37.7639 31.0602 36.0362 31.09 34.3102 31.0829C32.7198 31.0759 31.8463 30.1555 31.8392 28.5427C31.8286 25.7166 31.8357 22.8889 31.8357 20.0628H31.8234ZM36.3197 13.6481V26.6125C37.2197 26.6125 38.0369 26.5985 38.8541 26.616C40.7932 26.6581 42.1952 25.7657 43.0018 24.0687C44.2593 21.4197 44.2311 18.7077 43.0071 16.0499C42.3995 14.7333 41.3322 13.8322 39.858 13.6727C38.7044 13.5482 37.5262 13.6481 36.3215 13.6481H36.3197Z" fill="#0366D0"/>
<path d="M22.9449 26.765C20.5831 26.765 18.2425 26.751 15.9018 26.7878C15.6764 26.7913 15.3576 27.0648 15.2519 27.2909C14.9208 28.0009 14.6813 28.753 14.3854 29.4806C13.8465 30.8077 12.6383 31.3862 11.4283 30.9146C10.2747 30.4641 9.74461 29.2194 10.2325 27.9361C12.3917 22.256 14.5651 16.5793 16.749 10.908C17.1717 9.80879 18.1808 9.13734 19.2429 9.15488C20.3841 9.17241 21.2912 9.86489 21.7684 11.1219C23.6582 16.0972 25.5392 21.0761 27.4237 26.0532C27.6809 26.7334 27.9609 27.4066 28.1863 28.0974C28.5773 29.2947 28.0349 30.4869 26.9376 30.9146C25.7752 31.3669 24.5864 30.8568 24.0668 29.6384C23.6706 28.7057 23.3271 27.7502 22.9449 26.7667V26.765ZM19.2059 16.8739C18.4626 18.8251 17.8092 20.5414 17.1276 22.3313H21.2735C20.592 20.5326 19.9385 18.8058 19.2059 16.8739Z" fill="#0366D0"/>
<path d="M52.9002 34.9889C51.9931 34.9889 51.0861 35.0082 50.1809 34.9836C48.7155 34.9451 47.62 33.781 47.6394 32.3136C47.6588 30.9006 48.7631 29.7698 50.1985 29.7505C52.0108 29.7278 53.8248 29.726 55.6371 29.7505C57.069 29.7716 58.168 30.9129 58.1803 32.3294C58.1944 33.7933 57.0919 34.9486 55.6213 34.9819C54.716 35.0029 53.809 34.9854 52.9019 34.9854L52.9002 34.9889Z" fill="#0366D0"/>
</svg>
