<svg width="82" height="104" viewBox="0 0 82 104" fill="none" xmlns="http://www.w3.org/2000/svg">
<g clip-path="url(#clip0_1342_210)">
<path d="M1.03902 123.001C0.211546 122.47 -0.00404932 121.716 5.72526e-05 120.753C0.0329098 113.666 0.012377 106.576 0.0185368 99.4877C0.02675 90.895 7.05104 83.9417 15.7262 83.9295C17.3647 83.9274 19.0053 83.9295 20.6438 83.9295C24.6395 83.9254 27.2923 81.6477 27.8508 77.7469C28.0726 76.1952 28.3292 75.9362 29.7111 75.7364C29.7111 73.8237 29.7173 71.9314 29.7008 70.0391C29.7008 69.8556 29.6023 69.6293 29.4729 69.4988C27.1363 67.1558 25.6025 64.3766 24.9105 61.1691C20.5863 61.3098 19.379 58.818 19.6705 55.5106C19.7835 54.2321 19.6151 52.9291 19.7054 51.6465C19.8656 49.3525 18.6911 47.9904 16.7364 47.0687C13.6544 45.6148 12.0672 43.1598 12.1637 39.7871C12.1945 38.6778 12.56 37.5054 13.0507 36.494C15.2128 32.0447 17.4427 27.6259 19.7157 23.2317C21.1694 20.4238 23.5553 18.9047 26.7482 19.0046C32.3085 19.178 37.8667 19.4818 43.425 19.7448C46.4248 19.8876 49.4308 19.9773 52.4204 20.2403C56.0588 20.5605 58.9725 23.8434 59.032 27.4873C59.0525 28.7046 58.9458 29.9525 59.1737 31.1332C59.418 32.4076 59.9067 33.6555 60.4324 34.8525C61.6335 37.589 62.346 40.4049 62.3214 43.4106C62.2844 47.7865 62.2043 52.1644 62.3501 56.5342C62.4487 59.444 60.1079 61.5381 57.5352 61.1059C57.4079 61.0855 57.2723 61.114 57.0814 61.1222C56.3792 64.3174 54.8864 67.0824 52.5867 69.4111C52.4348 69.5661 52.3054 69.823 52.3034 70.033C52.2808 71.9253 52.2911 73.8176 52.2911 75.7302C53.6729 75.9342 53.9337 76.1992 54.1493 77.7428C54.6873 81.5865 57.3647 83.8948 61.2537 83.9335C63.7751 83.96 66.3232 83.8581 68.8139 84.166C75.3146 84.9714 80.8605 90.583 81.7783 97.0592C81.9015 97.9278 81.9734 98.8108 81.9754 99.6876C81.9918 106.708 81.9693 113.729 82.0021 120.749C82.0062 121.71 81.7906 122.466 80.9632 122.996H65.5943C65.5943 119.308 65.6066 115.619 65.5902 111.93C65.584 110.523 64.5841 109.687 63.4609 110.095C62.5452 110.427 62.307 111.149 62.309 112.032C62.3173 115.688 62.3132 119.342 62.3152 122.999H19.689C19.689 119.31 19.7013 115.621 19.6849 111.932C19.6787 110.525 18.6788 109.689 17.5556 110.097C16.6399 110.43 16.4017 111.151 16.4038 112.034C16.412 115.69 16.4079 119.344 16.4099 123.001H1.03902ZM28.0623 48.8917C28.0623 52.5763 27.8056 56.1835 28.1177 59.7417C28.6886 66.2403 35.181 71.3972 41.7372 70.8772C48.8703 70.3124 54.0733 64.7721 54.1144 57.67C54.1349 54.3157 54.1185 50.9613 54.1144 47.605C54.1144 47.3134 54.0774 47.0198 54.0548 46.6731C49.6957 46.822 45.7062 45.7107 41.8932 43.8449C41.6859 43.7429 41.3573 43.7429 41.1356 43.8286C36.7272 45.5231 32.3249 47.2359 28.0603 48.8917H28.0623ZM45.891 41.9567C46.5029 42.1769 46.8417 42.3156 47.1887 42.4196C49.7881 43.2005 52.4184 43.5819 55.1472 43.2617C56.7529 43.0721 57.3812 43.694 57.3914 45.2274C57.3935 45.623 57.3914 46.0186 57.3914 46.4223H59.0074C59.11 43.3168 59.1039 40.2908 57.8637 37.3259C53.9378 38.845 50.0509 40.3479 45.891 41.9567ZM33.2325 75.718H48.7389V72.2842C43.5297 74.829 38.3883 74.7841 33.2325 72.2842V75.718ZM57.3935 53.8161C57.3935 54.7622 57.4017 55.7104 57.3894 56.6565C57.3812 57.252 57.5044 57.8209 58.2004 57.8331C58.8965 57.8453 59.0423 57.2866 59.0402 56.6851C59.032 54.7561 59.0341 52.8292 59.0402 50.9002C59.0402 50.2946 58.8616 49.7032 58.1881 49.8072C57.876 49.8562 57.4756 50.4781 57.4304 50.8757C57.3196 51.8443 57.3955 52.8332 57.3935 53.814V53.8161ZM24.6005 50.4026L24.3541 50.2048C23.8921 50.5515 23.0585 50.8716 23.0318 51.2489C22.8962 53.1636 22.9373 55.0946 23.0112 57.0154C23.0235 57.307 23.541 57.5762 23.8264 57.8576C24.0851 57.5864 24.5594 57.3213 24.5676 57.0419C24.6292 54.8295 24.6025 52.6171 24.6025 50.4026H24.6005Z" fill="#0366D0"/>
<path d="M41.15 66.9501C39.8133 66.632 38.5443 66.3995 37.3226 66.0182C36.2672 65.6879 35.8422 64.7682 36.1646 63.8751C36.4828 62.9902 37.3986 62.5986 38.4232 62.9514C40.1541 63.5468 41.8665 63.6345 43.6016 62.9514C44.5481 62.5783 45.4516 62.9636 45.8048 63.8037C46.162 64.652 45.8191 65.6165 44.852 65.9591C43.6488 66.3832 42.3819 66.632 41.15 66.9521V66.9501Z" fill="#0366D0"/>
<path d="M33.7271 53.9875C32.5547 53.5756 31.4377 53.2779 30.4111 52.7926C29.5138 52.3685 29.29 51.4488 29.6924 50.6434C30.1175 49.7951 31.0106 49.4729 31.9469 49.9419C33.107 50.5231 34.1953 50.5435 35.3513 49.9236C36.1664 49.4872 37.0411 49.7829 37.4887 50.5108C37.9548 51.2694 37.7988 52.2971 36.9631 52.7253C35.957 53.2432 34.8441 53.5613 33.7251 53.9875H33.7271Z" fill="#0366D0"/>
<path d="M48.4658 53.9752C47.3201 53.5817 46.2318 53.3023 45.2319 52.8354C44.275 52.3888 44.0245 51.4549 44.4557 50.6229C44.8931 49.7808 45.776 49.479 46.7226 49.948C47.8437 50.5067 48.9031 50.5597 50.0325 49.9521C50.9051 49.4811 51.7962 49.7625 52.2541 50.5312C52.7305 51.3305 52.5251 52.3317 51.6094 52.7905C50.6259 53.2819 49.5438 53.5796 48.4637 53.9773L48.4658 53.9752Z" fill="#0366D0"/>
</g>
<defs>
<clipPath id="clip0_1342_210">
<rect width="82" height="104" fill="white"/>
</clipPath>
</defs>
</svg>
