<svg width="79" height="79" viewBox="0 0 79 79" fill="none" xmlns="http://www.w3.org/2000/svg">
<path d="M57.5528 0C61.0498 0 64.5468 0 68.0437 0C68.1025 0.0463797 68.1535 0.106673 68.2184 0.137593C69.3918 0.708063 69.9375 1.67585 69.7103 2.78587C69.4768 3.91908 68.5291 4.61941 67.2135 4.6256C66.5287 4.62869 65.8454 4.6256 65.1651 4.6256V9.25892C67.4779 9.25892 69.735 9.2481 71.9921 9.26202C74.2616 9.27748 76.1847 10.1231 77.5019 11.9737C78.1651 12.9059 78.5098 14.0639 78.9984 15.1198V54.4652C78.9582 54.527 78.8932 54.5858 78.8809 54.6538C78.2393 58.0859 75.1582 60.5053 71.5948 60.3306C70.9903 60.3013 70.3843 60.326 69.803 60.326V74.3713C70.5342 74.3713 71.2021 74.3682 71.87 74.3713C73.3649 74.3806 74.376 75.3252 74.3667 76.7027C74.3589 78.0446 73.3525 78.9923 71.9071 78.9938C65.8392 78.9985 59.7713 78.9985 53.7019 78.9938C52.2487 78.9938 51.2422 78.0554 51.2283 76.7166C51.2144 75.336 52.2239 74.3806 53.7111 74.3713C54.4192 74.3667 55.1257 74.3713 55.8121 74.3713V60.377H23.2017V74.3713C23.953 74.3713 24.6456 74.3667 25.3382 74.3713C26.7713 74.3837 27.7731 75.3437 27.77 76.6903C27.7669 78.0338 26.762 78.9923 25.3227 78.9938C19.2548 78.9985 13.1869 78.9985 7.11752 78.9938C5.62721 78.9938 4.61925 78.0322 4.63162 76.6516C4.64398 75.3128 5.6504 74.3806 7.10206 74.3713C7.81011 74.3667 8.51815 74.3713 9.22002 74.3713V60.326C8.44395 60.326 7.70498 60.3337 6.96601 60.326C3.06402 60.2796 0.054036 57.2758 0.00456541 53.3768C-0.00471034 52.6826 0.00301945 51.9885 0.00301945 51.2943C0.00301945 39.6716 -7.24667e-05 28.0489 0.00456541 16.4277C0.00456541 13.0327 1.92464 10.4416 5.16188 9.5202C5.8421 9.32695 6.57952 9.28211 7.29221 9.27129C9.46892 9.24037 11.6456 9.26047 13.8378 9.26047V4.6256C13.02 4.6256 12.2516 4.64724 11.4848 4.61941C10.4877 4.58386 9.79202 4.07213 9.41945 3.15227C8.91701 1.91857 9.44573 0.85184 10.9561 0C14.4531 0 17.95 0 21.447 0C21.5057 0.0463797 21.5568 0.106673 21.6232 0.137593C22.7982 0.709609 23.3439 1.67894 23.1135 2.79051C22.877 3.92526 21.9309 4.62096 20.6106 4.6256C19.9273 4.62869 19.244 4.6256 18.5762 4.6256V9.21718H37.1385V4.6256C36.3207 4.6256 35.5523 4.64724 34.7855 4.61941C33.7884 4.58386 33.0927 4.07213 32.7186 3.15382C32.2161 1.91857 32.7449 0.85184 34.2537 0C37.7507 0 41.2492 0 44.7461 0C44.8049 0.0463797 44.8559 0.106673 44.9224 0.137593C46.0973 0.709609 46.643 1.67894 46.4127 2.79051C46.1761 3.92526 45.23 4.62096 43.9098 4.6256C43.2265 4.62869 42.5431 4.6256 41.8753 4.6256V9.21718H60.4376V4.6256C59.6198 4.6256 58.8514 4.64724 58.0846 4.61941C57.0875 4.58386 56.3918 4.07213 56.0177 3.15382C55.5168 1.92012 56.0455 0.853386 57.5544 0.00154599L57.5528 0ZM39.5208 13.8845C28.8753 13.8845 18.2299 13.8845 7.58285 13.8845C5.47726 13.8845 4.62852 14.7271 4.62852 16.8188C4.62852 28.8018 4.62852 40.7847 4.62852 52.7677C4.62852 54.8594 5.47726 55.702 7.58285 55.702C28.849 55.702 50.1152 55.702 71.3799 55.702C73.538 55.702 74.3729 54.8733 74.3729 52.729C74.3729 40.7724 74.3729 28.8141 74.3729 16.8575C74.3729 14.7132 73.538 13.8845 71.3799 13.8845C60.7592 13.8845 50.14 13.8845 39.5192 13.8845H39.5208ZM18.4633 74.3389V60.3909H13.9244V74.3389H18.4633ZM65.06 74.3389V60.3909H60.5211V74.3389H65.06Z" fill="#0366D0"/>
<path d="M25.5172 29.683C26.3799 28.0118 27.1869 26.4673 27.9769 24.9121C28.4638 23.9536 29.1394 23.2795 30.2958 23.3042C31.4151 23.3274 32.0551 24.0077 32.5189 24.9399C35.4701 30.8579 38.3781 36.7976 41.4066 42.677C42.4563 44.7146 41.0943 46.5003 39.0382 46.4802C30.016 46.3905 20.9922 46.3951 11.97 46.4786C10.0391 46.4956 8.59208 44.7657 9.65879 42.6925C12.6811 36.8115 15.5937 30.8734 18.5434 24.9554C19.0211 23.9968 19.6781 23.2981 20.8361 23.3089C21.9847 23.3182 22.6464 24.0077 23.1256 24.9693C23.8893 26.506 24.6762 28.0303 25.5172 29.6845V29.683ZM26.4371 41.7912C24.5773 38.1303 22.7515 34.5374 20.85 30.793C18.984 34.5266 17.1861 38.1225 15.3526 41.7912H26.4371ZM30.2108 30.7698C29.5197 32.0932 28.8797 33.2851 28.2829 34.4987C28.1917 34.6827 28.2319 35.0012 28.3293 35.1975C29.3651 37.2831 30.4226 39.3593 31.4877 41.431C31.5681 41.5871 31.7567 41.7943 31.9005 41.7974C33.1373 41.8267 34.3756 41.8144 35.7345 41.8144C33.8623 38.0715 32.0613 34.4709 30.2108 30.7698Z" fill="#0366D0"/>
<path d="M58.0968 27.9252C55.0651 27.9252 52.0335 27.9268 49.0034 27.9252C47.4482 27.9237 46.4325 26.9868 46.4464 25.58C46.4603 24.2164 47.4745 23.3027 48.9926 23.3027C55.0559 23.2996 61.1176 23.2996 67.1808 23.3027C68.7361 23.3027 69.7517 24.2411 69.7378 25.648C69.7239 27.0116 68.7098 27.9237 67.1916 27.9252C64.16 27.9283 61.1284 27.9252 58.0983 27.9252H58.0968Z" fill="#0366D0"/>
<path d="M58.0257 37.1841C55.0204 37.1841 52.015 37.1857 49.0081 37.1841C47.4498 37.1826 46.4326 36.2504 46.4449 34.8451C46.4558 33.48 47.4699 32.5616 48.9849 32.5616C55.0482 32.5586 61.1099 32.5586 67.1731 32.5616C68.7315 32.5616 69.7487 33.4954 69.7363 34.9007C69.7255 36.2658 68.7114 37.1826 67.1963 37.1841C64.14 37.1872 61.0821 37.1841 58.0257 37.1841Z" fill="#0366D0"/>
<path d="M58.0661 46.4415C55.0345 46.4415 52.0029 46.4446 48.9728 46.4415C47.4655 46.44 46.4529 45.5108 46.4483 44.1426C46.4436 42.7682 47.4547 41.8206 48.9496 41.8206C55.0376 41.8175 61.1271 41.8175 67.2151 41.8206C68.7224 41.8206 69.735 42.7512 69.7397 44.1194C69.7443 45.4938 68.7332 46.44 67.2383 46.4415C64.1819 46.4461 61.124 46.4415 58.0677 46.4415H58.0661Z" fill="#0366D0"/>
</svg>
