<svg width="73" height="83" viewBox="0 0 73 83" fill="none" xmlns="http://www.w3.org/2000/svg">
<g clip-path="url(#clip0_1334_176)">
<path d="M51.7564 0C53.1364 0.561908 53.6591 1.60128 53.5844 3.06451C53.5163 4.40919 53.5828 5.75875 53.565 7.10668C53.5455 8.68846 52.5552 9.73108 51.1151 9.72134C49.6962 9.71159 48.6961 8.6235 48.688 7.06608C48.6815 5.77336 48.7481 4.47578 48.6702 3.18631C48.5793 1.70196 49.102 0.634989 50.4592 0H51.7548L51.7564 0Z" fill="#0366D0"/>
<path d="M38.8514 52.2299C40.9635 54.0341 42.2656 56.1486 42.1194 58.95C41.9733 61.7531 40.2378 63.6207 38.2101 65.412C40.0479 67.2195 41.8678 68.9133 43.579 70.7127C46.3145 73.5889 46.209 78.0728 43.4182 80.8644C40.5284 83.7568 36.0054 83.713 32.9662 80.7264C30.5391 78.3423 28.1494 75.9193 25.745 73.5109C24.201 71.9649 22.6604 70.4172 21.0434 68.7948C20.4589 69.4087 19.941 69.9917 19.3809 70.5341C16.4522 73.3696 12.1321 73.4557 9.17732 70.6445C6.75183 68.3368 4.38154 65.9674 2.07457 63.5427C-0.805493 60.5156 -0.667497 56.2087 2.35056 53.1637C6.36219 49.1166 10.3966 45.094 14.4325 41.0729C18.4425 37.0795 21.7642 32.5891 24.3001 27.5238C26.3116 23.5043 27.7695 19.2917 28.6559 14.8857C28.7062 14.6324 28.6283 14.3043 28.5033 14.0688C27.1607 11.5597 27.1071 9.03928 28.5942 6.60651C30.0959 4.14775 32.3785 2.98009 35.2602 3.10189C37.2376 3.18471 38.8644 4.07143 40.2524 5.46483C45.532 10.764 50.8262 16.0485 56.1139 21.3379C59.8365 25.0618 63.5657 28.7791 67.2802 32.5127C69.6018 34.8464 70.2398 37.9353 69.0206 40.766C67.3224 44.7091 62.6289 46.3461 58.843 44.2917C58.4144 44.0595 58.0393 43.9701 57.5572 44.0741C50.9204 45.5016 44.7885 48.1016 39.1891 51.9473C39.103 52.0057 39.0283 52.0805 38.8481 52.2299H38.8514ZM32.786 18.8451C30.5732 27.1762 26.6444 34.6451 21.1278 41.0745C24.6719 44.623 28.1364 48.0919 31.6334 51.5933C38.0965 46.0294 45.5499 42.1415 53.8572 39.9166C46.8 32.8587 39.8157 25.8754 32.7844 18.8451H32.786ZM17.6178 44.865C17.5334 44.9251 17.4587 44.964 17.4035 45.0192C13.5072 48.9153 9.60429 52.8048 5.72092 56.7121C4.60396 57.8359 4.63805 59.2066 5.78423 60.3629C7.95158 62.5505 10.1303 64.725 12.3155 66.8947C13.5494 68.1208 14.892 68.1013 16.1437 66.8508C19.9086 63.0913 23.6685 59.3268 27.4285 55.5607C27.5909 55.3983 27.7321 55.2132 27.8295 55.1011C24.404 51.668 21.032 48.2851 17.6194 44.8633L17.6178 44.865ZM32.4305 10.6487C32.4013 11.1684 32.8006 11.7757 33.3591 12.3328C42.3532 21.3217 51.3408 30.3155 60.3317 39.3076C60.4843 39.4603 60.632 39.6194 60.8009 39.7526C62.1533 40.8147 64.0673 40.2235 64.5966 38.5833C64.9392 37.5261 64.5446 36.6962 63.8076 35.9589C54.7778 26.9294 45.7512 17.8983 36.7214 8.87038C36.5509 8.69986 36.3707 8.52934 36.171 8.39779C35.356 7.86512 34.5021 7.81802 33.6481 8.29061C32.8493 8.73234 32.4613 9.43554 32.4305 10.6487ZM28.099 62.1168C26.9545 63.2618 25.8359 64.3807 24.7124 65.5062C28.6202 69.4281 32.6318 73.4703 36.6678 77.4881C37.1808 77.9981 37.8724 78.2076 38.6127 78.0744C39.5657 77.9022 40.2671 77.3679 40.5398 76.4341C40.8158 75.4922 40.6096 74.6266 39.8839 73.9055C37.8156 71.8495 35.757 69.7822 33.6952 67.7197C31.8055 65.8293 29.9173 63.939 28.099 62.1185V62.1168ZM34.8966 61.9057C35.4648 61.3162 36.0639 60.7364 36.6158 60.1128C37.3773 59.2505 37.4536 57.9415 36.7392 57.0662C36.2035 56.4101 35.5573 55.8449 34.9063 55.1839C33.7082 56.3143 32.5685 57.3926 31.4596 58.4385C32.6513 59.6402 33.7471 60.7446 34.8966 61.9041V61.9057Z" fill="#0366D0"/>
<path d="M68.1716 7.63119C68.0109 7.93163 67.8064 8.60235 67.3778 9.05707C65.8436 10.6827 64.2444 12.2483 62.6485 13.8138C61.5965 14.8467 60.0672 14.8467 59.1077 13.8577C58.1564 12.8751 58.1645 11.4168 59.1824 10.3758C60.7458 8.77612 62.332 7.20083 63.9214 5.62878C64.7023 4.85738 65.6406 4.62839 66.6651 5.05226C67.6294 5.45014 68.0937 6.22642 68.1716 7.63281V7.63119Z" fill="#0366D0"/>
<path d="M68.2042 19.4508C69.0127 19.4508 69.8212 19.4313 70.6297 19.454C72.0129 19.493 73.0081 20.5291 73 21.8917C72.9919 23.2445 71.9723 24.2871 70.5956 24.3033C68.9526 24.3228 67.308 24.3261 65.6634 24.3033C64.3192 24.2838 63.2623 23.1795 63.272 21.8592C63.2818 20.5616 64.3013 19.4995 65.618 19.4573C66.4801 19.4297 67.3421 19.4524 68.2042 19.4524V19.4508Z" fill="#0366D0"/>
<path d="M14.499 60.9719C13.2343 60.8924 12.494 60.488 12.0443 59.6159C11.5589 58.6756 11.6368 57.7337 12.3268 56.9817C13.5265 55.6712 14.7847 54.4061 16.0949 53.2059C17.0381 52.3419 18.535 52.4784 19.3938 53.3683C20.2916 54.2972 20.3354 55.7718 19.4214 56.7333C18.2704 57.9431 17.0966 59.1384 15.8644 60.2655C15.4374 60.6552 14.8075 60.8225 14.5006 60.9752L14.499 60.9719Z" fill="#0366D0"/>
</g>
<defs>
<clipPath id="clip0_1334_176">
<rect width="73" height="83" fill="white"/>
</clipPath>
</defs>
</svg>
