<svg width="76" height="79" viewBox="0 0 76 79" fill="none" xmlns="http://www.w3.org/2000/svg">
<g clip-path="url(#clip0_1334_184)">
<path d="M53.7905 0C55.6285 1.01419 56.7556 2.72254 57.8642 4.39842C64.0861 13.8075 62.8869 26.2669 55.0404 34.3618C54.3279 35.0977 53.5172 35.3976 52.5514 35.1379C51.6961 34.9076 51.1617 34.2969 50.9544 33.4311C50.7364 32.519 51.0773 31.78 51.7022 31.1306C54.0961 28.6477 55.8051 25.7598 56.5867 22.3802C58.1728 15.5236 56.6097 9.474 51.8619 4.28402C50.8439 3.17088 50.5659 2.18607 51.2247 1.1858C51.541 0.701892 52.1107 0.389597 52.5652 0C52.9736 0 53.3821 0 53.7905 0Z" fill="#0366D0"/>
<path d="M23.4473 0C24.3241 0.53183 25.1548 1.17807 25.0043 2.3113C24.9168 2.9699 24.5744 3.69808 24.1229 4.18662C21.3145 7.23227 19.5011 10.7479 18.9621 14.882C18.159 21.0413 19.8727 26.4091 24.0846 30.9513C24.6466 31.5589 25.0934 32.1835 25.032 33.0492C24.9613 34.0418 24.4577 34.7638 23.5318 35.09C22.5874 35.4224 21.7199 35.2013 21.0059 34.47C17.898 31.2806 15.7145 27.5377 14.7702 23.1733C12.9598 14.8047 14.9268 7.40543 20.7218 1.08994C21.1072 0.669426 21.6155 0.361768 22.0669 0.00154602H23.4458L23.4473 0Z" fill="#0366D0"/>
<path d="M37.9749 79C27.9649 79 17.9549 79 7.94496 79C3.29698 78.9985 0.00330856 75.6792 0.00177305 70.9932C0.000237544 62.2768 -0.00129796 53.5619 0.00177305 44.8454C0.00330856 40.2877 3.3415 36.8958 7.86665 36.8942C27.9373 36.8865 48.0079 36.8865 68.0801 36.8942C72.5592 36.8958 75.9542 40.2491 75.9726 44.7666C76.0095 53.5588 76.0095 62.3525 75.9726 71.1447C75.9542 75.6761 72.5684 78.9954 68.0816 78.997C58.0455 79.0001 48.011 78.997 37.9749 78.997V79ZM37.9703 74.3759C47.8805 74.3759 57.7906 74.3759 67.6993 74.3759C70.1484 74.3759 71.3123 73.2102 71.3123 70.7474C71.3139 62.2103 71.277 53.6716 71.3369 45.1345C71.3522 42.865 69.9288 41.5354 67.7361 41.5385C47.8912 41.5694 28.0448 41.5555 8.19985 41.557C5.77529 41.557 4.59294 42.7598 4.59294 45.2118C4.59294 53.6979 4.59294 62.184 4.59294 70.6701C4.59294 73.1623 5.7845 74.3728 8.23978 74.3728C18.15 74.3728 28.0601 74.3728 37.9688 74.3728L37.9703 74.3759Z" fill="#0366D0"/>
<path d="M38.0929 10.4449C42.0499 10.533 45.1977 13.7673 45.1286 17.6741C45.058 21.6969 41.7628 24.9188 37.8242 24.8136C33.8826 24.71 30.7425 21.4047 30.8208 17.4438C30.8975 13.5323 34.1974 10.3568 38.0929 10.4434V10.4449ZM40.476 17.688C40.5006 16.2456 39.4396 15.1247 38.033 15.1062C36.605 15.0876 35.4872 16.1621 35.4626 17.5783C35.438 18.9836 36.5482 20.1168 37.9609 20.1245C39.3551 20.1323 40.4515 19.0686 40.476 17.688Z" fill="#0366D0"/>
<path d="M53.8119 17.7838C53.7643 21.4927 52.4437 24.7873 49.8242 27.5469C48.8138 28.6106 47.3842 28.7049 46.4184 27.7958C45.4326 26.8682 45.4464 25.4938 46.4553 24.3637C50.1436 20.2265 50.1282 14.9468 46.4153 10.8283C45.448 9.75532 45.4449 8.38245 46.4061 7.45175C47.3612 6.52723 48.7631 6.57052 49.752 7.60017C52.4453 10.4062 53.7981 13.7672 53.8134 17.7822L53.8119 17.7838Z" fill="#0366D0"/>
<path d="M30.3909 9.2143C30.096 9.7585 29.8888 10.3831 29.4911 10.8361C25.7966 15.032 25.8074 20.2467 29.5617 24.441C30.4646 25.4506 30.4584 26.8652 29.5479 27.765C28.6373 28.6632 27.217 28.6323 26.245 27.6939C20.7755 22.4158 20.7847 12.8335 26.2619 7.53069C27.022 6.79478 27.9525 6.60307 28.86 6.99731C29.706 7.36372 30.2342 8.18311 30.3909 9.2143Z" fill="#0366D0"/>
<path d="M56.4223 50.8145V54.46C56.7033 54.46 56.972 54.46 57.2422 54.46C59.1063 54.46 60.9704 54.4507 62.8345 54.4631C64.1889 54.4724 65.19 55.468 65.1885 56.7713C65.1885 58.07 64.1797 59.078 62.8299 59.0872C60.714 59.1027 58.5996 59.0919 56.4345 59.0919V65.1167C56.7278 65.1167 57.0011 65.1167 57.2729 65.1167C59.5716 65.1167 61.8702 65.1059 64.1689 65.1213C65.4357 65.1306 66.4584 66.1958 66.443 67.445C66.4292 68.6679 65.4342 69.7254 64.2073 69.7331C60.8107 69.7532 57.4142 69.7517 54.0176 69.7347C52.7816 69.7285 51.8633 68.8086 51.7743 67.5594C51.7574 67.3291 51.7604 67.0972 51.7604 66.8653C51.7604 60.9255 51.7589 54.9856 51.7604 49.0458C51.7604 46.9835 52.5896 46.1486 54.6319 46.1486C57.8503 46.1486 61.0672 46.1424 64.2856 46.1532C65.5002 46.1579 66.3954 46.8505 66.6626 47.9374C66.9113 48.95 66.4952 50.0291 65.5662 50.4883C65.1286 50.7047 64.5912 50.7928 64.0967 50.799C61.8242 50.83 59.5516 50.8129 57.2775 50.8129C57.0042 50.8129 56.7294 50.8129 56.4192 50.8129L56.4223 50.8145Z" fill="#0366D0"/>
<path d="M40.8662 59.3532C41.6494 56.742 42.3603 54.3673 43.0743 51.9941C43.4797 50.646 43.8758 49.2963 44.295 47.9528C44.7127 46.6124 45.9058 45.9028 47.1173 46.2507C48.4455 46.631 49.138 47.8709 48.7234 49.2623C46.8793 55.4696 45.0198 61.6722 43.1542 67.8748C42.801 69.0498 41.958 69.6899 40.8678 69.6806C39.7622 69.6713 38.9499 69.0498 38.5937 67.8702C36.7296 61.6969 34.8716 55.5221 33.0244 49.3427C32.5991 47.9219 33.2378 46.6789 34.5461 46.2739C35.8252 45.8781 37.0244 46.5784 37.4666 48.0332C38.5891 51.7298 39.69 55.434 40.8662 59.3563V59.3532Z" fill="#0366D0"/>
<path d="M13.809 65.1167C15.8727 65.1167 17.8335 65.1136 19.7959 65.1167C21.2546 65.1198 22.308 66.1015 22.2972 67.4404C22.285 68.7823 21.2377 69.7377 19.7667 69.7408C17.0873 69.7439 14.4078 69.7455 11.7283 69.7408C10.1452 69.7377 9.2055 68.8009 9.20396 67.2116C9.20089 61.0445 9.20089 54.8774 9.20396 48.7104C9.20396 47.2401 10.1729 46.1687 11.4919 46.1532C12.8262 46.1378 13.8043 47.1798 13.8074 48.6702C13.8166 53.8091 13.8105 58.9481 13.812 64.0871C13.812 64.3916 13.812 64.6962 13.812 65.1152L13.809 65.1167Z" fill="#0366D0"/>
<path d="M24.8107 57.9493C24.8107 54.7893 24.7877 51.6292 24.8199 48.4692C24.8368 46.733 26.5243 45.6662 28.0522 46.3836C28.912 46.7871 29.4065 47.4936 29.408 48.4475C29.4218 54.7924 29.4249 61.1388 29.408 67.4836C29.4049 68.7761 28.3454 69.7501 27.0786 69.7393C25.8088 69.7285 24.8276 68.7622 24.8184 67.428C24.7969 64.2679 24.8122 61.1079 24.8122 57.9478L24.8107 57.9493Z" fill="#0366D0"/>
</g>
<defs>
<clipPath id="clip0_1334_184">
<rect width="76" height="79" fill="white"/>
</clipPath>
</defs>
</svg>
