<svg width="61" height="61" viewBox="0 0 61 61" fill="none" xmlns="http://www.w3.org/2000/svg">
<path d="M61 30.5198C61 38.4167 61 46.315 61 54.2119C61 58.219 58.209 60.9986 54.1918 61C38.3968 61 22.6018 61 6.80688 61C2.80051 60.9986 0 58.2054 0 54.2065C0 38.3894 0 22.571 0 6.75262C0.0013641 2.80143 2.81278 0 6.77687 0C22.595 0 38.4118 0 54.23 0C58.194 0 60.9973 2.7987 60.9986 6.75808C61.0014 14.6782 60.9986 22.5983 60.9986 30.5184L61 30.5198ZM4.40333 15.2769V45.6971H56.609V15.2769H4.40333ZM28.2738 10.8634V4.40809H17.4619V10.8634H28.2738ZM32.7139 4.38491V10.8497H43.5231V4.38627H32.7139V4.38491ZM28.2738 56.6151V50.1598H17.4619V56.6151H28.2738ZM32.7249 50.1353V56.5905H43.5367V50.1353H32.7249ZM13.0395 4.36172C10.7928 4.36172 8.59522 4.32899 6.39901 4.37672C5.38685 4.39855 4.61613 5.13096 4.42106 6.13614C4.33512 6.57532 4.35968 7.03767 4.35695 7.49049C4.34876 8.61433 4.35422 9.73954 4.35422 10.8593H13.0395V4.36172ZM47.981 4.36172V10.8552H56.6308C56.6308 9.32628 56.6853 7.83146 56.613 6.34345C56.5598 5.25507 55.695 4.40537 54.6092 4.37945C52.413 4.3249 50.214 4.36309 47.981 4.36309V4.36172ZM4.35695 50.1339C4.35695 51.6369 4.32694 53.0649 4.3665 54.4915C4.4006 55.719 5.3241 56.6001 6.56543 56.6383C7.49439 56.6669 8.42607 56.6451 9.35639 56.6451C10.5745 56.6451 11.7927 56.6451 13.0299 56.6451V50.1325H4.35695V50.1339ZM47.9605 56.6383C50.2045 56.6383 52.4021 56.671 54.5969 56.6233C55.5968 56.6015 56.4589 55.9127 56.5326 54.9307C56.6512 53.3418 56.5639 51.7392 56.5639 50.1407H47.9592V56.6383H47.9605Z" fill="#0366D0"/>
<path d="M21.7874 30.4666C21.7874 27.6324 21.7846 24.7969 21.7874 21.9627C21.7901 20.0942 23.3861 19.059 25.053 19.8869C30.785 22.7333 36.506 25.603 42.2298 28.4671C43.0633 28.8845 43.568 29.5296 43.568 30.5007C43.568 31.4718 43.0633 32.1169 42.2298 32.5343C36.506 35.3984 30.785 38.268 25.053 41.1145C23.3861 41.9424 21.7887 40.9058 21.786 39.0386C21.7819 36.1813 21.786 33.3239 21.786 30.4666H21.7874ZM26.1675 35.6685C29.6323 33.9336 33.0044 32.2437 36.4897 30.498C32.9662 28.7358 29.5982 27.0514 26.1675 25.337V35.6685Z" fill="#0366D0"/>
</svg>
