<svg width="113" height="87" viewBox="0 0 113 87" fill="none" xmlns="http://www.w3.org/2000/svg">
<path d="M106.262 35.0217C106.262 32.6247 106.262 30.2295 106.262 27.8325C106.262 25.853 106.051 25.5365 104.2 24.7642L94.5218 20.7195C82.481 15.6908 70.0293 10.4905 57.7927 5.35309C56.6551 4.87634 55.6726 4.88207 54.502 5.37216C45.4477 9.17466 36.2344 13.0248 27.3254 16.7511C20.9455 19.4189 14.5656 22.0849 8.1876 24.7584C7.70504 24.9606 7.28256 25.2466 6.87364 25.5231C6.69147 25.6471 6.51898 25.7634 6.34456 25.8721L6.07324 26.0399V60.9184L6.32906 61.0881C6.46472 61.1778 6.60038 61.2788 6.74379 61.3837C7.07713 61.6316 7.42403 61.8872 7.83683 62.0588C15.616 65.3197 23.3951 68.5749 31.1762 71.8301C39.0135 75.1082 46.8488 78.3882 54.6823 81.672C55.2036 81.8913 55.6939 82 56.1803 82C56.6668 82 57.128 81.8951 57.6222 81.6873C74.1728 74.744 89.4985 68.3365 104.477 62.0969C105.749 61.5668 106.289 60.7659 106.285 59.4176C106.258 51.2844 106.26 43.0158 106.264 35.0179L106.262 35.0217ZM102.196 51.1242V56.9252C101.787 56.7669 101.398 56.6144 101.008 56.4504L91.7524 52.5773C80.9732 48.0673 69.8258 43.4048 58.8528 38.8395C58.2927 38.6069 58.2191 38.4352 58.2385 37.9261C58.2927 36.5321 58.2734 35.1209 58.2559 33.7555L58.252 33.4256C58.2327 31.9592 57.4168 31.0133 56.1726 31.0133H56.1648C54.9206 31.0171 54.1067 31.9668 54.0892 33.4352C54.0815 34.0549 54.0834 34.6823 54.0853 35.2906C54.0892 36.2708 54.0912 37.2834 54.0563 38.2712C54.0485 38.3742 53.8974 38.6088 53.816 38.6564C40.0949 44.4174 26.1316 50.2508 12.6295 55.8897L10.1392 56.929V42.8003C10.1411 38.2159 10.143 33.4752 10.1275 28.8127C10.1275 28.376 10.1721 28.3016 10.5345 28.1509C22.1587 23.311 33.9689 18.372 45.3895 13.595L54.0214 9.98512C54.0427 9.97559 54.064 9.96796 54.0853 9.96033V23.7687C54.0853 23.9289 54.0834 24.0872 54.0853 24.2474C54.1222 25.7215 54.8974 26.6654 56.1047 26.7074C56.6532 26.7264 57.1454 26.5472 57.5234 26.1868C57.9982 25.7367 58.2501 25.0597 58.252 24.2264C58.2598 20.8873 58.2579 17.4948 58.2579 14.211V9.96415C58.3102 9.98512 58.3625 10.0061 58.4148 10.0271L71.3471 15.4333C81.4713 19.6649 91.5954 23.8984 101.721 28.128L101.749 28.1395C102.206 28.3302 102.223 28.3493 102.221 28.6315C102.198 36.1297 102.198 43.7538 102.198 51.1261L102.196 51.1242ZM27.5676 54.0552C36.7228 50.2279 46.1899 46.2691 55.5098 42.4036C55.8722 42.253 56.3935 42.2263 56.6726 42.3407C69.5099 47.6707 82.5488 53.1208 95.1594 58.3917L98.9676 59.984L98.0625 60.3654C96.5916 60.9852 95.1671 61.584 93.7408 62.1808L84.9791 65.8403C75.7193 69.7077 66.1455 73.7066 56.7327 77.6464C56.2966 77.8295 56.035 77.8371 55.659 77.6788C44.2558 72.8961 32.6549 68.0486 21.4377 63.3613L13.3698 59.9897L27.5676 54.0533V54.0552Z" fill="#0366D0"/>
<path d="M46.0525 61.8398C47.1661 62.3222 48.2759 62.8104 49.3876 63.2986C51.2682 64.1257 53.2137 64.9815 55.1406 65.7913C55.4704 65.9292 55.8502 66 56.219 66C56.5469 66 56.8674 65.9445 57.1342 65.8315C59.2187 64.9566 61.3198 64.03 63.3523 63.1321C64.364 62.686 65.3775 62.238 66.3909 61.7957C67.36 61.3726 67.8417 60.5877 67.8195 59.4619C67.8046 58.6674 67.8084 57.8576 67.8121 57.0726C67.8121 56.728 67.8158 56.3815 67.8158 56.0369C67.8158 55.6922 67.8158 55.3208 67.8139 54.9628C67.8121 54.1281 67.8084 53.2646 67.8195 52.4165C67.8343 51.3482 67.3563 50.5939 66.4021 50.1784C65.4127 49.7477 64.4232 49.3131 63.4357 48.8785C61.4069 47.9844 59.3076 47.0616 57.225 46.1924C56.6099 45.9359 55.7539 45.9359 55.1406 46.1924C53.058 47.0616 50.9569 47.9863 48.9262 48.8804C47.9387 49.315 46.953 49.7496 45.9636 50.1803C45.0149 50.5939 44.535 51.3444 44.5425 52.4108C44.5536 54.5091 44.5628 56.9884 44.5388 59.4658C44.5276 60.6011 45.0372 61.4013 46.0507 61.8398H46.0525ZM63.8433 58.4894C62.1498 59.2456 60.4693 59.9827 58.6906 60.7638L58.1774 60.9897V60.7963C58.1737 59.7548 58.1718 58.7727 58.1941 57.7925C58.2033 57.7676 58.2274 57.7293 58.2459 57.7082C59.8801 56.9673 61.518 56.2475 63.2541 55.4855L63.8563 55.2213V55.3495C63.8563 56.437 63.86 57.467 63.8433 58.4913V58.4894ZM51.5813 52.1523C51.6536 52.1217 51.724 52.091 51.7944 52.0604C52.8616 51.6028 53.8696 51.1702 54.8553 50.659C55.8058 50.1669 56.5617 50.1612 57.464 50.6398C58.4442 51.1587 59.4577 51.5894 60.5305 52.0432C60.6138 52.0776 60.6972 52.114 60.7806 52.1504C60.7213 52.1772 60.662 52.204 60.6027 52.2289C59.1297 52.8798 57.7383 53.4963 56.3338 54.0917C56.2727 54.1166 56.0967 54.1185 55.9781 54.0668C54.5959 53.4791 53.2192 52.8741 51.7629 52.2308L51.5813 52.1504V52.1523ZM54.1864 59.774V60.9859L53.5787 60.7198C51.85 59.9654 50.2158 59.2532 48.5927 58.5257C48.5705 58.5104 48.5334 58.4683 48.5149 58.4357C48.4908 57.4651 48.4927 56.4829 48.4964 55.4453V55.2232L49.2486 55.5506C50.301 56.0101 51.3108 56.4485 52.3188 56.8926C53.2878 57.3177 53.8214 57.5532 54.0067 57.8384C54.1883 58.1199 54.1883 58.7057 54.1883 59.774H54.1864Z" fill="#0366D0"/>
<path d="M83.3282 24.1251C78.7664 22.0802 74.1374 19.9806 69.6595 17.9508C67.7426 17.0823 65.8256 16.2118 63.9087 15.3452C62.9642 14.9185 62.1989 14.8864 61.6371 15.2546C61.0473 15.6397 60.758 16.3874 60.7542 17.5354C60.7468 19.5897 60.7486 21.6799 60.7505 23.6984C60.7505 24.5933 60.7505 25.4902 60.7505 26.3852C60.7505 27.2179 60.7524 28.0505 60.7561 28.8851C60.7617 30.9337 60.7692 33.0522 60.7356 35.1311C60.7132 36.5038 61.2321 37.3534 62.4192 37.884C67.2087 40.029 72.0711 42.2343 76.7711 44.366C78.4323 45.1194 80.0935 45.8747 81.7566 46.6261C82.3091 46.8754 82.7888 47 83.2069 47C83.5541 47 83.8583 46.9131 84.1215 46.7413C84.7188 46.3505 85.01 45.5763 85.01 44.3755C85.01 42.5912 85.01 40.8069 85.01 39.0226C85.0081 35.0386 85.0044 30.9186 85.0287 26.8686C85.0361 25.4996 84.5135 24.6519 83.3301 24.1232L83.3282 24.1251ZM81.163 38.02C81.163 39.3436 81.163 40.6671 81.163 41.9907C81.0716 41.9511 80.982 41.9095 80.8905 41.8699C80.2186 41.5716 79.5634 41.2808 78.912 40.9862C77.6278 40.4028 76.3436 39.8194 75.0613 39.234C71.7631 37.733 68.3529 36.179 64.9894 34.6742C64.6012 34.5005 64.5377 34.4023 64.5414 33.9699C64.5638 30.2559 64.562 26.6193 64.5582 22.7694C64.5582 21.8536 64.5582 20.9341 64.5582 20.0108L64.5825 20.0221C65.1313 20.2676 65.652 20.5017 66.1728 20.7377L69.9582 22.4541C73.5531 24.0835 77.1462 25.713 80.7431 27.3387L80.8177 27.3727C81.1836 27.5351 81.1836 27.5445 81.1836 27.7673C81.1668 31.1849 81.1668 34.6609 81.1668 38.02H81.163Z" fill="#0366D0"/>
<path d="M37.4354 35.3817C37.4373 34.5303 37.4392 33.677 37.4392 32.8256C37.4392 31.8973 37.4392 30.9709 37.4392 30.0426C37.4411 27.9074 37.4431 25.701 37.4334 23.5292C37.4276 22.4337 37.121 21.6784 36.5193 21.2844C35.9215 20.8904 35.1057 20.9058 34.0991 21.3305C31.4088 22.4645 28.7205 23.6022 26.0322 24.74C22.0228 26.4352 17.8785 28.1899 13.7978 29.9042C12.6658 30.3789 12.1431 31.1785 12.147 32.422C12.1644 36.5329 12.1644 40.7151 12.1624 44.7588C12.1624 46.65 12.1624 48.5411 12.1624 50.4323C12.1624 51.5336 12.4691 52.2966 13.0727 52.7021C13.3697 52.902 13.7187 53 14.1198 53C14.521 53 14.98 52.8981 15.4833 52.6944C17.5892 51.8411 19.6932 50.9877 21.7991 50.1325C26.333 48.2913 31.0212 46.3867 35.6418 44.5397C36.9127 44.0323 37.4701 43.1963 37.4527 41.8259C37.4238 39.6811 37.4296 37.4958 37.4354 35.3836V35.3817ZM16.2219 33.7116C16.22 33.3003 16.2547 33.2849 16.4533 33.2003C20.5263 31.4937 24.661 29.7447 28.6588 28.0534C30.2189 27.3942 31.7771 26.7331 33.3373 26.0758C33.3373 26.12 33.3392 26.1642 33.3392 26.2084C33.3392 27.9842 33.3392 29.7601 33.3392 31.534C33.3392 34.5534 33.3392 37.5708 33.3431 40.5901V40.6094C33.3431 41.0706 33.3392 41.0725 33.104 41.1667C28.8227 42.8753 24.4797 44.6358 20.2795 46.3386C18.9276 46.8864 17.5776 47.4341 16.2258 47.9819V38.4395C16.2277 36.8904 16.2296 35.2895 16.22 33.7135L16.2219 33.7116Z" fill="#0366D0"/>
<path d="M98.4697 29.7805C96.6494 29.0302 94.8101 28.2319 93.0315 27.4624C92.1886 27.0978 91.3438 26.7313 90.4989 26.3686C89.4174 25.9042 88.5953 25.8793 87.9816 26.29C87.3678 26.7006 87.0685 27.4816 87.0648 28.6752C87.0591 30.7803 87.061 32.8854 87.0629 34.9905V37.5735C87.0629 38.4197 87.0648 39.266 87.0667 40.1122C87.0704 42.225 87.0742 44.4107 87.0534 46.558C87.042 47.8725 87.5951 48.7169 88.7979 49.2139C90.5974 49.9584 92.4197 50.7471 94.1794 51.509C95.0715 51.8947 95.9637 52.2823 96.8559 52.6642C97.3806 52.8887 97.8522 53 98.2708 53C98.6591 53 98.9982 52.9021 99.288 52.7083C99.8904 52.3034 100.197 51.532 100.199 50.4132C100.203 47.909 100.203 45.4047 100.203 42.9024C100.203 39.4713 100.203 35.9212 100.212 32.4326C100.216 31.1161 99.6631 30.2737 98.4697 29.7805ZM96.1247 46.2587V47.9205L95.6284 47.7094C94.168 47.0838 92.6602 46.4371 91.1922 45.7828C91.1733 45.7502 91.1524 45.7022 91.1505 45.683C91.1354 41.3692 91.1354 37.1302 91.1373 32.6417V31.0797L91.2585 31.1296C91.8874 31.3906 92.4841 31.6381 93.0788 31.8914C93.3042 31.9874 93.5297 32.0795 93.7551 32.1735C94.4389 32.4556 95.1454 32.7492 95.8008 33.0888C95.9201 33.1502 96.0887 33.3748 96.1039 33.4534C96.1342 37.7212 96.1304 42.0619 96.1247 46.2587Z" fill="#0366D0"/>
<path d="M51.7042 14.3014C51.3068 14.0295 50.6151 13.8026 49.5684 14.2681C47.8907 15.0153 46.1872 15.784 44.5407 16.5254C43.0157 17.2119 41.4925 17.9005 39.9656 18.5812C38.9648 19.0271 38.4608 19.8076 38.4681 20.903C38.4755 21.9905 38.4718 23.0976 38.4681 24.1695C38.4644 25.6561 38.4608 27.1936 38.4828 28.7095C38.4994 29.8753 38.9593 30.4386 39.3419 30.7066C39.6234 30.9022 39.9545 31 40.3206 31C40.6591 31 41.0252 30.9159 41.4042 30.7477C43.218 29.9418 45.0558 29.1105 46.8329 28.3046C48.2788 27.6513 49.7229 26.996 51.1726 26.3486C52.1476 25.9124 52.6369 25.1182 52.6295 23.9876C52.624 23.1328 52.6259 22.2781 52.6259 21.4252V20.2868C52.6259 19.8858 52.6295 19.4848 52.6314 19.0839C52.6369 18.1958 52.6443 17.2765 52.6185 16.3689C52.5835 15.1562 52.1016 14.5752 51.7042 14.3033V14.3014ZM48.6523 22.9451C48.6394 22.9607 48.6247 22.9764 48.621 22.9803C46.7759 23.8272 44.9381 24.6546 42.9917 25.5309L42.37 25.8106C42.37 25.7011 42.37 25.5935 42.37 25.4859C42.3663 24.3319 42.3644 23.2443 42.3884 22.1685C42.3939 22.1274 42.4307 22.0433 42.4601 22.0003C44.2519 21.167 46.04 20.3631 47.933 19.5142L48.6707 19.1817V19.4183C48.6725 20.6369 48.6743 21.791 48.6541 22.9431L48.6523 22.9451Z" fill="#0366D0"/>
</svg>
